HIERARCHY
ROOT Hips
{
	OFFSET	0.00	0.00	0.00
	CHANNELS 6 Xposition Yposition Zposition Zrotation Xrotation Yrotation
	JOINT Spine
	{
		OFFSET	 0.00	0.01	 0.00
		CHANNELS 3 Zrotation Xrotation Yrotation
		JOINT Spine1
		{
			OFFSET	 0.00	 2.45913012437421	 0.00
			CHANNELS 3 Zrotation Xrotation Yrotation
            JOINT Neck
            {
                OFFSET	 0.00	 2.48462964506057	 0.00
                CHANNELS 3 Zrotation Xrotation Yrotation
                JOINT Head
                {
                    OFFSET	 0.00	 0.927524780924562	 0.00
                    CHANNELS 3 Zrotation Xrotation Yrotation
                    End Site 
                    {
                        OFFSET	 0.00	 1.14999962169752	 0.00
                    }
                }
            }
			JOINT LeftShoulder
			{
				OFFSET	 0.00	 2.48462964506057	 0.00
				CHANNELS 3 Zrotation Xrotation Yrotation
				JOINT LeftUpArm
				{
					OFFSET	 0.00	 1.24881979654096	 0.00
					CHANNELS 3 Zrotation Xrotation Yrotation
					JOINT LeftForeArm
					{
						OFFSET	 0.00	2.59758046908119	 0.00
						CHANNELS 3 Zrotation Xrotation Yrotation
						JOINT LeftHand
						{
							OFFSET	 0.00	2.45542024364365	 0.00
							CHANNELS 3 Zrotation Xrotation Yrotation
							JOINT LeftHandThumb 
							{
								OFFSET	 0.00	0.00	 0.00
								CHANNELS 3 Zrotation Xrotation Yrotation
								End Site
								{
									OFFSET	 0.00	0.00	1.00000003353624
								}
							}
							JOINT L_Wrist_End 
							{
								OFFSET	 0.00	0.99999967115358	 0.00
								CHANNELS 3 Zrotation Xrotation Yrotation
								End Site 
								{
									OFFSET	 0.00	 0.00	 0.00
								}
							}
						}
					}
				}
			}
			JOINT RightShoulder
			{
				OFFSET	 0.00	 2.48462964506057	 0.00
				CHANNELS 3 Zrotation Xrotation Yrotation
				JOINT RightUpArm
				{
					OFFSET	 0.00	 1.24881979654096	 0.00
					CHANNELS 3 Zrotation Xrotation Yrotation
					JOINT RightForeArm
					{
						OFFSET	 0.00	2.59758046908119	 0.00
						CHANNELS 3 Zrotation Xrotation Yrotation
						JOINT RightHand
						{
							OFFSET	 0.00	2.45542024364365	 0.00
							CHANNELS 3 Zrotation Xrotation Yrotation
							JOINT RightHandThumb 
							{
								OFFSET	 0.00	0.00	 0.00
								CHANNELS 3 Zrotation Xrotation Yrotation
								End Site
								{
									OFFSET	 0.00	0.00	1.00000003353624
								}
							}
							JOINT R_Wrist_End 
							{
								OFFSET	 0.00	0.99999967115358	 0.00
								CHANNELS 3 Zrotation Xrotation Yrotation
								End Site 
								{
									OFFSET	 0.00	 0.00	 0.00
								}
							}
						}
					}
				}
			}
		}
	}
	JOINT LeftUpLeg
	{
		OFFSET	 1.2719394002717	 0.00	 0.00
		CHANNELS 3 Zrotation Xrotation Yrotation
		JOINT LeftLowLeg
		{
			OFFSET	 0.00	-4.3429100912261	 0.00
			CHANNELS 3 Zrotation Xrotation Yrotation
			JOINT LeftFoot
			{
				OFFSET	 0.00	-4.48767017425826	 0.00
				CHANNELS 3 Zrotation Xrotation Yrotation
				JOINT LeftToeBase
                {
                    OFFSET	 0.00	0.00	 1.51507020887566
                    CHANNELS 3 Zrotation Xrotation Yrotation
                    End Site 
                    {
                        OFFSET	 0.00	0.00	 0.75000010571191
                    }
                }
			}
		}
	}
	JOINT RightUpLeg
	{
		OFFSET	 -1.2719393604653	 0.00	 0.00
		CHANNELS 3 Zrotation Xrotation Yrotation
		JOINT RightLowLeg
		{
			OFFSET	 0.00	-4.3429100912261	 0.00
			CHANNELS 3 Zrotation Xrotation Yrotation
			JOINT RightFoot
			{
				OFFSET	 0.00	-4.48767017425826	 0.00
				CHANNELS 3 Zrotation Xrotation Yrotation
				JOINT RightToeBase
                {
                    OFFSET	 0.00	0.00	 1.51507020887566
                    CHANNELS 3 Zrotation Xrotation Yrotation
                    End Site 
                    {
                        OFFSET	 0.00	0.00	 0.749999965609858
                    }
                }   
			}
		}
	}
}
MOTION 
Frames:	18 
Frame Time: 0.02 
  3.654020080566406 3.4105801391601562 9.58552001953125 -178.566 50.5157 169.863 0.247503 32.4216 8.25299 -3.73361 8.84416 -6.17057 -8.68896 5.35082 5.36895 24.5963 -67.5653 9.62364 -96.43971 14.8521 11.6869 -27.6029 55.2507 -15.0803 0.0 51.1385 0.0 9.02058 -18.4014 -61.7862 0.0 0.0 0.0 0.0 0.0 0.0 103.6384 14.0169 -11.0394 17.6852 50.675 21.5229 0.0 55.2842 0.0 -2.78668 -11.7169 49.1278 0.0 0.0 0.0 0.0 0.0 0.0 4.2274 -58.4836 8.92961 0.0 28.0265 0.0 -1.99999 8.135281 -6.95857 0.0 -39.758698 0.0 -4.02674 -43.8006 -6.68036 0.0 17.9987 0.0 14.9641 9.27256 7.31764 0.0 -28.866001 0.0 
  3.642659912109375 3.3922799682617186 9.59135009765625 -178.154 51.6672 169.555 0.236562 31.7835 8.15894 -3.99548 9.05322 -6.29247 -8.28005 4.81911 5.494 24.0887 -67.1303 9.0973 -96.37133 14.3142 10.8452 -29.9358 54.0226 -11.5367 0.0 51.8281 0.0 8.9753 -18.2494 -62.0153 0.0 0.0 0.0 0.0 0.0 0.0 104.1216 13.7794 -11.2703 18.993 49.8577 19.376 0.0 56.0595 0.0 -2.5824 -11.7498 50.3503 0.0 0.0 0.0 0.0 0.0 0.0 4.13207 -57.1409 8.56268 0.0 27.9389 0.0 -2.12385 8.061131 -6.83783 0.0 -39.7233 0.0 -3.78361 -42.3813 -6.50059 0.0 17.7541 0.0 14.799 9.32757 7.19315 0.0 -28.8897 0.0 
  3.6272698974609376 3.3758700561523436 9.598880004882812 -177.842 52.8515 169.212 -0.126821 31.199 8.35598 -3.95907 9.07277 -6.39085 -7.88763 4.44859 5.4512 23.2267 -66.6075 8.39976 -96.53728 13.951 11.0887 -30.5881 53.1959 -9.55489 0.0 52.5584 0.0 9.01233 -18.5989 -62.6489 0.0 0.0 0.0 0.0 0.0 0.0 104.2984 13.6071 -11.3211 20.7292 48.7801 17.0495 0.0 56.8698 0.0 -2.4994 -11.6658 51.4775 0.0 0.0 0.0 0.0 0.0 0.0 4.22311 -55.6607 8.61436 0.0 27.6745 0.0 -2.2631 8.010651 -6.89763 0.0 -39.7089 0.0 -3.50147 -41.0362 -6.26668 0.0 17.6118 0.0 14.4738 9.41416 7.04106 0.0 -28.8773 0.0 
  3.617619934082031 3.3550601196289063 9.6047900390625 -177.49 53.8131 169.003 -0.206484 30.3212 8.29883 -3.96711 9.16766 -6.5292 -7.7145 4.12334 5.53431 22.6904 -66.148 7.80029 -96.91662 13.5569 11.835 -30.1935 52.6487 -8.36317 0.0 53.3903 0.0 8.74519 -19.5208 -63.479 0.0 0.0 0.0 0.0 0.0 0.0 104.6739 13.3641 -11.6665 21.7055 47.924 15.1365 0.0 57.5125 0.0 -2.42258 -11.706 52.2864 0.0 0.0 0.0 0.0 0.0 0.0 4.03953 -54.4376 8.2358 0.0 27.4502 0.0 -2.37098 7.96471 -6.83026 0.0 -39.627502 0.0 -3.42767 -39.8245 -6.453 0.0 17.4355 0.0 14.3219 9.510651 7.12674 0.0 -28.9312 0.0 
  3.6051300048828123 3.3322198486328123 9.613499755859374 -176.967 55.0308 168.657 -0.325655 29.7438 8.30176 -3.90479 9.21781 -6.62822 -7.63005 3.7748 5.66095 22.2759 -65.6942 7.11495 -97.06403 13.2995 11.976 -30.8037 51.632 -6.34431 0.0 54.3202 0.0 8.47559 -19.6012 -64.2096 0.0 0.0 0.0 0.0 0.0 0.0 104.9445 12.9391 -11.8895 22.7847 47.2263 13.0757 0.0 57.9816 0.0 -2.2482 -11.8667 53.0618 0.0 0.0 0.0 0.0 0.0 0.0 3.8792 -52.922 7.71828 0.0 27.1929 0.0 -2.54664 7.96574 -6.71676 0.0 -39.6044 0.0 -3.25148 -38.3157 -6.31717 0.0 17.214 0.0 14.2188 9.65965 7.00318 0.0 -28.986301 0.0 
  3.592919921875 3.3089599609375 9.623469848632812 -176.533 56.162 168.341 -0.461734 29.1003 8.3036 -3.97346 9.22456 -6.74655 -7.25665 3.57059 5.64444 21.6827 -65.225 6.62937 -97.14345 12.9146 12.1686 -31.2509 50.7894 -4.47894 0.0 55.2081 0.0 8.18821 -19.8855 -64.3794 0.0 0.0 0.0 0.0 0.0 0.0 105.3075 12.5569 -12.2175 23.6565 46.4715 11.1287 0.0 58.5434 0.0 -1.96674 -12.0226 54.1093 0.0 0.0 0.0 0.0 0.0 0.0 3.74325 -51.4699 7.2956 0.0 26.9001 0.0 -2.68672 8.00204 -6.5985 0.0 -39.5653 0.0 -3.11006 -36.957 -6.01036 0.0 17.0754 0.0 14.1378 9.79807 6.82161 0.0 -29.0458 0.0 
  3.5805499267578127 3.285260009765625 9.634030151367188 -175.982 57.2878 167.892 -0.576947 28.4023 8.33104 -4.00205 9.39707 -6.80989 -6.95745 3.25841 5.69984 21.1736 -64.7329 6.08307 -97.13837 12.4882 12.3059 -31.7942 50.077 -2.77368 0.0 56.0694 0.0 8.15454 -19.9575 -64.6289 0.0 0.0 0.0 0.0 0.0 0.0 105.6014 12.0692 -12.2026 24.684 45.7095 8.93916 0.0 59.097 0.0 -1.80156 -11.9181 54.5561 0.0 0.0 0.0 0.0 0.0 0.0 3.68133 -50.037 6.86094 0.0 26.6657 0.0 -2.86965 8.009581 -6.40661 0.0 -39.506798 0.0 -2.91398 -35.5872 -5.68539 0.0 16.9284 0.0 14.1781 10.03796 6.69077 0.0 -29.2076 0.0 
  3.569679870605469 3.2563800048828124 9.643040161132813 -175.27 58.4108 167.449 -0.524805 27.6935 8.19481 -4.04724 9.58757 -6.92201 -6.4727 3.12111 5.64145 20.681 -64.4008 5.92498 -96.98925 12.1319 11.1679 -33.8064 48.5698 0.374846 0.0 56.9796 0.0 8.20898 -20.0517 -64.4752 0.0 0.0 0.0 0.0 0.0 0.0 105.9848 11.708 -12.4257 25.387 44.8148 7.10729 0.0 59.8672 0.0 -1.57369 -12.0493 55.5285 0.0 0.0 0.0 0.0 0.0 0.0 3.51556 -48.633 6.27284 0.0 26.513 0.0 -2.95163 7.97433 -6.20507 0.0 -39.4384 0.0 -2.80485 -34.1327 -5.73512 0.0 16.7792 0.0 14.1619 10.23137 6.72463 0.0 -29.3788 0.0 
  3.5565701293945313 3.231099853515625 9.652310180664063 -174.433 59.5586 166.794 -0.60484 27.1228 8.17342 -3.92794 9.61451 -7.01018 -6.27608 3.03679 5.71574 20.435 -64.0337 5.67249 -97.21036 11.6357 11.5443 -33.8896 48.0005 1.49527 0.0 57.8154 0.0 8.18571 -20.1009 -64.4286 0.0 0.0 0.0 0.0 0.0 0.0 106.1676 11.3914 -12.5368 26.2547 43.8529 5.16679 0.0 60.6251 0.0 -1.52254 -11.9384 56.0456 0.0 0.0 0.0 0.0 0.0 0.0 3.50522 -47.2071 5.75426 0.0 26.3818 0.0 -3.08194 7.89284 -5.94071 0.0 -39.398003 0.0 -2.57681 -32.7163 -5.71238 0.0 16.6921 0.0 13.9777 10.48009 6.71462 0.0 -29.5462 0.0 
  3.544119873046875 3.2056900024414063 9.65833984375 -173.712 60.5811 166.32 -0.651743 26.3897 8.08557 -3.8347 9.76494 -7.1435 -6.07505 2.78242 5.85672 20.0377 -63.478 5.28243 -97.2649 11.2172 11.8068 -34.1488 47.3705 2.5441 0.0 58.723 0.0 8.23549 -20.2537 -64.4127 0.0 0.0 0.0 0.0 0.0 0.0 106.405304 11.0202 -12.6526 26.8547 42.9887 3.33157 0.0 61.4168 0.0 -1.1087 -12.0855 56.6461 0.0 0.0 0.0 0.0 0.0 0.0 3.33345 -45.9081 5.04662 0.0 26.2089 0.0 -3.22849 7.78501 -5.61779 0.0 -39.3028 0.0 -2.48406 -31.5786 -5.71801 0.0 16.929 0.0 13.9121 10.509769 6.71129 0.0 -29.6775 0.0 
  3.532510070800781 3.1824200439453123 9.664400024414062 -173.083 61.5928 165.872 -0.67099 25.7895 8.01353 -3.96685 9.79257 -7.24659 -5.90906 2.49435 6.12268 19.8845 -62.8815 4.86787 -97.32514 10.8011 11.9353 -34.2997 46.6813 3.71958 0.0 59.7402 0.0 8.21696 -20.671 -64.8838 0.0 0.0 0.0 0.0 0.0 0.0 106.9356 10.562 -13.1366 26.7669 42.319 1.96491 0.0 62.2601 0.0 -1.03866 -11.9828 57.7619 0.0 0.0 0.0 0.0 0.0 0.0 3.17693 -44.6038 4.44824 0.0 25.9736 0.0 -3.38632 7.72762 -5.34725 0.0 -39.2781 0.0 -2.41157 -30.5025 -5.60631 0.0 17.171 0.0 13.887 10.569059 6.64724 0.0 -29.8624 0.0 
  3.5130499267578124 3.1434500122070315 9.680900268554687 -169.029 65.4835 162.615 -0.0842783 28.2378 7.6691 -3.95198 10.1654 -7.16926 -6.20106 2.44536 6.46024 21.083 -63.3614 5.3283 -98.12275 10.506 11.9977 -33.3447 45.903 4.645 0.0 60.6677 0.0 7.97928 -20.8487 -65.428 0.0 0.0 0.0 0.0 0.0 0.0 107.7177 10.4812 -13.0033 26.8676 40.8083 0.418237 0.0 63.3213 0.0 -0.877012 -11.7184 58.3945 0.0 0.0 0.0 0.0 0.0 0.0 3.45057 -40.1202 3.7056 0.0 25.7607 0.0 -3.54979 7.61372 -5.4837 0.0 -39.2045 0.0 -1.68779 -25.8517 -5.67801 0.0 16.9097 0.0 13.1841 11.16301 6.27223 0.0 -30.1672 0.0 
  3.4983599853515623 3.125480041503906 9.686400146484376 -168.439 66.2569 162.135 -0.372856 27.5457 7.80204 -3.78943 10.201 -7.24896 -6.01163 2.0087 6.58486 20.5538 -62.822 4.8812 -98.31586 10.0623 11.9181 -33.4249 45.4254 5.89078 0.0 61.6003 0.0 7.85142 -21.076 -66.1595 0.0 0.0 0.0 0.0 0.0 0.0 108.008896 10.1527 -12.9028 27.2306 39.6741 -1.08654 0.0 64.4198 0.0 -0.938492 -11.3441 58.7509 0.0 0.0 0.0 0.0 0.0 0.0 3.53588 -39.1251 3.92827 0.0 25.6257 0.0 -3.50088 7.62578 -5.74292 0.0 -39.2461 0.0 -1.60894 -25.2016 -5.34766 0.0 17.4133 0.0 13.2318 11.10683 6.05005 0.0 -30.0209 0.0 
  3.4874700927734374 3.111570129394531 9.692039794921875 -167.749 67.0862 161.52 -0.563618 26.9856 7.88381 -3.76403 10.3037 -7.3061 -5.75593 1.53609 6.70976 20.0538 -62.3109 4.49866 -98.43527 9.61996 11.95 -33.3029 45.0723 6.80248 0.0 62.5614 0.0 7.81857 -21.2088 -66.6387 0.0 0.0 0.0 0.0 0.0 0.0 108.141 9.80769 -12.9644 27.494 38.9749 -2.12899 0.0 65.2719 0.0 -0.548326 -11.3196 59.7041 0.0 0.0 0.0 0.0 0.0 0.0 3.59872 -38.0807 4.09434 0.0 25.4771 0.0 -3.49573 7.65388 -5.91372 0.0 -39.236298 0.0 -1.55144 -24.56 -5.13433 0.0 17.9746 0.0 13.2226 11.15112 5.92671 0.0 -30.1028 0.0 
  3.4748001098632812 3.0950799560546876 9.695969848632812 -166.819 67.8986 160.839 -0.611643 26.4155 7.86475 -3.70427 10.5214 -7.36032 -5.64395 1.20128 6.87455 19.9089 -62.0682 4.46657 -98.61169 9.29214 11.7447 -33.2641 44.5379 7.79355 0.0 63.5759 0.0 7.76824 -21.2395 -66.9729 0.0 0.0 0.0 0.0 0.0 0.0 108.5603 9.50021 -13.0746 27.4343 38.0522 -2.91271 0.0 66.3692 0.0 -0.595583 -11.1348 60.3908 0.0 0.0 0.0 0.0 0.0 0.0 3.61588 -37.0753 4.01044 0.0 25.3929 0.0 -3.51587 7.62449 -6.04766 0.0 -39.252502 0.0 -1.49259 -23.9095 -5.11362 0.0 18.6576 0.0 13.2905 11.09804 5.85335 0.0 -30.1574 0.0 
  3.464100036621094 3.0810699462890625 9.697570190429687 -165.808 68.7072 159.982 -0.666914 25.8604 7.89103 -3.65009 10.8002 -7.36723 -5.58547 0.734627 7.04774 19.6937 -61.6637 4.08425 -98.72703 9.09421 11.6392 -33.1342 43.9945 8.44592 0.0 64.6634 0.0 7.76232 -21.4668 -66.8707 0.0 0.0 0.0 0.0 0.0 0.0 108.7536 9.2135 -13.1087 27.5207 37.2548 -3.54834 0.0 67.3425 0.0 -0.16259 -11.14 61.1698 0.0 0.0 0.0 0.0 0.0 0.0 3.65911 -36.0973 3.8787 0.0 25.3798 0.0 -3.56831 7.47283 -6.05184 0.0 -39.1605 0.0 -1.41148 -23.3209 -5.03929 0.0 19.3915 0.0 13.2501 11.05876 5.81999 0.0 -30.3925 0.0 
  3.451180114746094 3.070010070800781 9.697340087890625 -165.148 69.3886 159.262 -0.90637 25.193 8.10095 -3.65672 11.0669 -7.30702 -5.41178 0.309943 7.18628 19.3259 -61.1443 3.60485 -98.78933 8.86837 11.6698 -32.8889 43.6432 8.89552 0.0 65.6773 0.0 7.56991 -21.6333 -66.7428 0.0 0.0 0.0 0.0 0.0 0.0 108.9606 8.78687 -13.161 27.6765 36.6692 -4.19499 0.0 68.2801 0.0 -0.112954 -11.4163 61.8816 0.0 0.0 0.0 0.0 0.0 0.0 3.75671 -35.2408 3.99484 0.0 25.3316 0.0 -3.61814 7.28107 -6.04521 0.0 -39.2246 0.0 -1.35038 -23.015 -4.80827 0.0 20.2704 0.0 13.288 10.9624195 5.86178 0.0 -30.5764 0.0 
  3.4423098754882813 3.0585501098632815 9.696380004882812 -164.385 70.1342 158.591 -0.936788 24.5985 8.08966 -3.84721 11.3502 -7.34327 -5.08921 0.153748 7.36736 19.0688 -60.6393 3.39193 -98.97549 8.46054 12.4219 -31.8553 43.8653 8.5059 0.0 66.4499 0.0 7.3223 -21.8543 -67.0775 0.0 0.0 0.0 0.0 0.0 0.0 109.2149 8.52672 -13.3404 27.7416 36.1291 -4.69302 0.0 69.1258 0.0 -0.294023 -11.6606 62.9573 0.0 0.0 0.0 0.0 0.0 0.0 3.66724 -34.2983 3.69094 0.0 25.1846 0.0 -3.73947 7.13748 -5.91146 0.0 -39.1251 0.0 -1.41578 -22.5803 -4.89927 0.0 21.0953 0.0 13.2571 10.85003 6.06924 0.0 -30.7552 0.0 
